<svg width="20" height="15" viewBox="0 0 20 15" fill="none" xmlns="http://www.w3.org/2000/svg">
<path d="M14.7669 7.64027C15.2982 7.65182 15.8325 7.61681 16.3616 7.65845C16.8975 7.75843 17.0267 8.56966 16.5506 8.83534C16.2257 9.01037 15.8399 8.90054 15.4877 8.93141H14.7669V7.64027ZM16.6688 6.17888C16.7868 6.5955 16.3852 6.96956 15.984 6.91219H14.7669C14.7755 6.5193 14.7503 6.09286 14.7793 5.72066C15.2668 5.73439 15.7589 5.69266 16.2436 5.74248C16.4519 5.79481 16.6262 5.96602 16.6688 6.17888ZM19.5977 0.000517289C19.6204 0.796157 19.601 1.63385 19.6075 2.44563C19.606 5.74603 19.6107 9.04634 19.6049 12.3469C19.5835 13.5838 18.4874 14.6586 17.259 14.6833C16.0295 14.6883 14.7998 14.6841 13.5701 14.6854V9.6959C14.9099 9.68899 16.2504 9.70995 17.5897 9.68545C18.2109 9.64644 18.8915 9.2365 18.9204 8.55279C18.9935 7.86613 18.3461 7.39118 17.7315 7.31617C17.4952 7.31003 17.5021 7.24729 17.7315 7.21992C18.3177 7.09322 18.7781 6.48648 18.6056 5.87882C18.4586 5.23971 17.7522 4.99235 17.1647 4.99358C15.9667 4.98544 14.7684 4.99244 13.5703 4.99008C13.5781 4.05859 13.5542 3.12611 13.5832 2.19531C13.6781 0.980735 14.8019 -0.0208957 16.013 0.000835352C17.208 0.000653502 18.4029 0.000653627 19.5977 0.000608164V0.000517289Z" fill="url(#paint0_linear_778_626)"/>
<path d="M0.0318666 2.32109C0.0624629 1.08614 1.16334 0.0201847 2.3901 0.00213612C3.61509 -0.00163727 4.84026 0.00159077 6.06525 0.000499673C6.06188 4.13236 6.07188 8.26468 6.0602 12.3963C6.01301 13.6163 4.92414 14.6619 3.71074 14.6835C2.48343 14.6879 1.25599 14.6841 0.0286388 14.6854V9.52763C1.2208 9.80927 2.47098 9.92915 3.68719 9.74235C4.41418 9.62537 5.2096 9.26836 5.45573 8.51413C5.63685 7.86897 5.53488 7.18999 5.56184 6.52783V4.99006H3.45706C3.4476 6.0071 3.47643 7.02592 3.44183 8.04173C3.38509 8.66611 2.76676 9.06282 2.17788 9.04163C1.44757 9.04936 0.000360697 8.51236 0.000360697 8.51236C-0.00327631 6.60684 0.0215466 4.22047 0.0318666 2.32127V2.32109Z" fill="url(#paint1_linear_778_626)"/>
<path d="M6.85052 5.61031C6.73973 5.63381 6.82825 5.23292 6.79992 5.08085C6.80747 4.11932 6.78415 3.15674 6.81279 2.19589C6.90744 0.976174 8.03986 -0.0279563 9.25584 0.000594176H12.8368C12.8334 4.13246 12.8434 8.26477 12.8318 12.3964C12.7845 13.6164 11.6956 14.6619 10.4821 14.6836C9.25479 14.6882 8.02731 14.6843 6.79988 14.6855V9.0345C7.63816 9.7223 8.77749 9.82937 9.82184 9.83123C10.6092 9.83096 11.3919 9.70957 12.1565 9.528V8.49272C11.2948 8.92216 10.2819 9.19494 9.32676 8.94821C8.66047 8.78237 8.17679 8.13843 8.18757 7.45081C8.11037 6.73573 8.52954 5.98078 9.23225 5.7682C10.1047 5.49506 11.0556 5.70396 11.8734 6.05907C12.0486 6.15081 12.2265 6.2646 12.1564 5.97174V5.158C10.7886 4.83258 9.33303 4.71283 7.95889 5.06685C7.56114 5.17905 7.17362 5.34922 6.85052 5.6104V5.61031Z" fill="url(#paint2_linear_778_626)"/>
<defs>
<linearGradient id="paint0_linear_778_626" x1="13.5288" y1="7.02899" x2="19.5694" y2="7.02899" gradientUnits="userSpaceOnUse">
<stop stop-color="#58B03A"/>
<stop offset="1" stop-color="#55B330"/>
</linearGradient>
<linearGradient id="paint1_linear_778_626" x1="-0.0997978" y1="7.48355" x2="5.96627" y2="7.48355" gradientUnits="userSpaceOnUse">
<stop stop-color="#0F6EB6"/>
<stop offset="1" stop-color="#006DBA"/>
</linearGradient>
<linearGradient id="paint2_linear_778_626" x1="6.79102" y1="7.17132" x2="12.8357" y2="7.17132" gradientUnits="userSpaceOnUse">
<stop stop-color="#DE0D3D"/>
<stop offset="1" stop-color="#E30138"/>
</linearGradient>
</defs>
</svg>
