<svg width="23" height="14" viewBox="0 0 23 14" fill="none" xmlns="http://www.w3.org/2000/svg">
<path d="M15.5771 0C19.322 0 22.3584 2.99989 22.3584 6.7002C22.3583 10.4004 19.322 13.4004 15.5771 13.4004C13.8982 13.4004 12.3629 12.7956 11.1787 11.7969C9.99451 12.7955 8.45913 13.4004 6.78027 13.4004C3.03566 13.4002 0.000106927 10.4003 0 6.7002C0 3.00002 3.03559 0.00022229 6.78027 0C8.45899 0 9.99455 0.604078 11.1787 1.60254C12.3629 0.603945 13.8983 2.73975e-05 15.5771 0Z" fill="#ED0006"/>
<path d="M15.5771 0C19.322 8.12273e-05 22.3574 2.99994 22.3574 6.7002C22.3573 10.4004 19.3219 13.4003 15.5771 13.4004C13.8982 13.4004 12.3629 12.7956 11.1787 11.7969C12.6359 10.568 13.5615 8.74148 13.5615 6.7002C13.5615 4.6587 12.6361 2.83144 11.1787 1.60254C12.3629 0.604 13.8984 0 15.5771 0Z" fill="#F9A000"/>
<path d="M11.1787 1.60254C12.6363 2.83144 13.5615 4.65856 13.5615 6.7002C13.5615 8.74162 12.636 10.568 11.1787 11.7969C9.72175 10.568 8.79693 8.74132 8.79688 6.7002C8.79688 4.65886 9.72154 2.83143 11.1787 1.60254Z" fill="#FF5E00"/>
</svg>
