<svg width="11" height="14" viewBox="0 0 11 14" fill="none" xmlns="http://www.w3.org/2000/svg">
<path fill-rule="evenodd" clip-rule="evenodd" d="M3.06617 12.7183L3.2869 11.2692L2.7952 11.2573H0.447266L2.079 0.563718C2.08408 0.531336 2.10052 0.501276 2.12451 0.479892C2.14863 0.458508 2.17937 0.446777 2.21153 0.446777H6.17051C7.48493 0.446777 8.39194 0.729414 8.86543 1.28735C9.08746 1.5491 9.22885 1.82269 9.29731 2.12366C9.36907 2.43953 9.37025 2.81687 9.30026 3.27717L9.29518 3.31065V3.60563L9.5172 3.73565C9.70411 3.83817 9.85272 3.95548 9.96669 4.08977C10.1566 4.31363 10.2794 4.5981 10.3313 4.93523C10.385 5.28202 10.3672 5.6948 10.2794 6.16207C10.1781 6.69948 10.0143 7.16761 9.79314 7.55057C9.58979 7.90346 9.33064 8.19624 9.02291 8.42304C8.72912 8.63859 8.38012 8.80221 7.98549 8.90693C7.60303 9.00982 7.16702 9.06175 6.6888 9.06175H6.38071C6.16046 9.06175 5.94647 9.14374 5.77848 9.29074C5.61001 9.44079 5.49864 9.64584 5.46447 9.87007L5.44118 10.0006L5.05116 12.5548L5.03354 12.6485C5.02881 12.6782 5.02078 12.693 5.00895 12.703C4.99843 12.7122 4.9833 12.7183 4.96852 12.7183H3.06617Z" fill="#28356A"/>
<path fill-rule="evenodd" clip-rule="evenodd" d="M9.72822 3.34473C9.71652 3.42281 9.70292 3.5026 9.68779 3.58459C9.16571 6.35524 7.37946 7.31239 5.0982 7.31239H3.93664C3.65763 7.31239 3.42248 7.52171 3.3791 7.80618L2.61596 12.8094C2.5877 12.9963 2.72697 13.1645 2.90927 13.1645H4.96945C5.21335 13.1645 5.4206 12.9814 5.45902 12.7327L5.47923 12.6246L5.86713 10.0803L5.89207 9.94079C5.93002 9.69127 6.13775 9.50798 6.38164 9.50798H6.68973C8.68572 9.50798 10.2483 8.67046 10.705 6.24661C10.8957 5.2341 10.797 4.38864 10.2922 3.79404C10.1394 3.61478 9.94989 3.46594 9.72822 3.34473Z" fill="#298FC2"/>
<path fill-rule="evenodd" clip-rule="evenodd" d="M9.18195 3.1197C9.10215 3.09563 9.01987 3.07388 8.93545 3.05421C8.85057 3.03502 8.76367 3.01804 8.67418 3.00313C8.361 2.95083 8.01779 2.92603 7.65024 2.92603H4.5472C4.47071 2.92603 4.39812 2.94387 4.33321 2.97613C4.19004 3.04724 4.08376 3.18728 4.05799 3.35872L3.39782 7.68025L3.37891 7.80623C3.42229 7.52177 3.65744 7.31245 3.93645 7.31245H5.09801C7.37926 7.31245 9.16552 6.35481 9.6876 3.58465C9.7032 3.50266 9.71632 3.42287 9.72803 3.34479C9.59597 3.27232 9.45292 3.21037 9.29887 3.15758C9.26081 3.14451 9.22156 3.13192 9.18195 3.1197Z" fill="#22284F"/>
<path fill-rule="evenodd" clip-rule="evenodd" d="M4.05778 3.35864C4.08355 3.1872 4.18984 3.04717 4.33301 2.97654C4.39838 2.94416 4.4705 2.92632 4.54699 2.92632H7.65003C8.01759 2.92632 8.36079 2.95125 8.67397 3.00354C8.76347 3.01833 8.85036 3.03544 8.93525 3.05462C9.01966 3.07417 9.10194 3.09605 9.18174 3.12C9.22135 3.13222 9.2606 3.14492 9.29902 3.15751C9.45307 3.2103 9.59624 3.27274 9.72829 3.34471C9.88364 2.32084 9.72699 1.62372 9.19144 0.992465C8.60091 0.297422 7.53523 0 6.17151 0H2.21242C1.93388 0 1.69625 0.209319 1.65321 0.494277L0.00422016 11.2979C-0.0282915 11.5116 0.131193 11.7044 0.339741 11.7044H2.78391L4.05778 3.35864Z" fill="#28356A"/>
</svg>
